<svg width="57" height="57" fill="none" xmlns="http://www.w3.org/2000/svg"><g clip-path="url(#a)" fill="#C14646" stroke="#fff"><path d="M20.82 10.343h-.003a19.487 19.487 0 0 0-6.262 4.213A19.665 19.665 0 0 0 8.811 27.8H5.459c.08-2.847.688-5.657 1.794-8.286a22.862 22.862 0 0 1 4.931-7.326l.001-.001a22.881 22.881 0 0 1 7.329-4.93c5.557-2.343 11.997-2.378 17.601-.135l.428.17.326-.324a5.21 5.21 0 0 1 3.694-1.518 5.221 5.221 0 0 1 5.237 5.237 5.221 5.221 0 0 1-5.237 5.238h-.002a5.209 5.209 0 0 1-5.215-5.054l-.013-.459-.427-.17a19.985 19.985 0 0 0-15.087.1ZM36.18 46.657h.003a19.537 19.537 0 0 0 6.26-4.212 19.55 19.55 0 0 0 4.212-6.258 19.684 19.684 0 0 0 1.533-6.987h3.352a23.03 23.03 0 0 1-1.795 8.286A23.01 23.01 0 0 1 28.5 51.55H28.5a22.969 22.969 0 0 1-8.613-1.67l-.429-.174-.327.326a5.211 5.211 0 0 1-3.694 1.518 5.222 5.222 0 0 1-5.237-5.237 5.222 5.222 0 0 1 5.238-5.238 5.209 5.209 0 0 1 5.216 5.054l.014.459.426.17a19.985 19.985 0 0 0 15.087-.1Z" stroke-width="1.4"/><path d="M18.572 28.5c0-5.473 4.455-9.928 9.928-9.928 5.473 0 9.928 4.455 9.928 9.928 0 5.473-4.455 9.928-9.928 9.928-5.473 0-9.928-4.455-9.928-9.928Zm3.05 0a6.886 6.886 0 0 0 6.878 6.878 6.886 6.886 0 0 0 6.878-6.878 6.886 6.886 0 0 0-6.878-6.878 6.886 6.886 0 0 0-6.878 6.878Z" stroke-width="1.7"/></g><defs><clipPath id="a"><path fill="#fff" d="M0 0h57v57H0z"/></clipPath></defs></svg>