<svg width="57" height="57" fill="none" xmlns="http://www.w3.org/2000/svg"><path d="M29.647 49.72c-2.047.568-4.508-.422-5.125-2.973a4.094 4.094 0 0 0-6.111-2.532c-3.665 2.233-7.861-1.961-5.629-5.628a4.093 4.093 0 0 0-2.53-6.109c-4.17-1.012-4.17-6.944 0-7.956a4.094 4.094 0 0 0 2.533-6.111c-2.233-3.665 1.961-7.861 5.628-5.629 2.375 1.444 5.453.166 6.109-2.53 1.012-4.17 6.944-4.17 7.956 0a4.094 4.094 0 0 0 6.111 2.533c3.665-2.233 7.861 1.961 5.629 5.628a4.095 4.095 0 0 0 2.53 6.109c2.564.622 3.552 3.106 2.96 5.16M38 45.126h14.25M45.125 38v14.25" stroke="#C14646" stroke-width="2.3" stroke-linecap="round" stroke-linejoin="round"/><path d="M21.375 28.5a7.125 7.125 0 1 0 14.25 0 7.125 7.125 0 0 0-14.25 0Z" stroke="#C14646" stroke-width="2.3" stroke-linecap="round" stroke-linejoin="round"/></svg>