<svg version="1.0" xmlns="http://www.w3.org/2000/svg" width="76" height="76" viewBox="0 0 57 57"><g fill="#c14646"><path d="M12.3 10c-1.7 1-3.7 2.8-4.2 3.9-1.6 2.9-1.3 11.1.5 16.4 1.9 5.7 9.2 14.1 14.8 16.9 4.9 2.5 16.2 3.6 19.5 1.9 2.3-1.3 6.1-6.7 6.1-8.9 0-.7-3-2.6-6.6-4.2-6.8-3.1-8.5-3-11.4.4-2 2.5-4.3 1.9-8.3-2.2-4-4.1-4.6-6.2-2.1-8.2 3.4-2.9 3.5-4.6.4-11.4C19.4 11 17.5 8 16.8 8c-.7 0-2.7.9-4.5 2zm7.6 4.9c2.5 5.9 2.6 7.4.5 9.1-3.3 2.8-3.7 5-1.3 8.4 1.2 1.8 3.7 4.3 5.5 5.5 3.4 2.4 5.6 2 8.4-1.3 1.7-2.1 3.2-2 9.1.5 6 2.6 6.5 5.4 1.7 9.4-2.9 2.5-3.8 2.7-9.3 2.3-7.4-.6-12.7-3.2-18.1-9-5.6-5.8-7.6-10-8.2-17.3-.4-5.5-.2-6.4 2.3-9.3 4-4.8 6.8-4.3 9.4 1.7zM35.3 17c0 4.1.2 5.8.4 3.7.2-2 .2-5.4 0-7.5-.2-2-.4-.3-.4 3.8zM44.3 17c0 4.1.2 5.8.4 3.7.2-2 .2-5.4 0-7.5-.2-2-.4-.3-.4 3.8z"/></g></svg>