<svg width="57" height="57" fill="none" xmlns="http://www.w3.org/2000/svg"><path d="m20.524 28.005-.495.495.495.495 3.444 3.444c.35.348.493.718.479 1.145-.015.458-.173.85-.491 1.201-.348.347-.74.514-1.205.527-.455.014-.835-.136-1.178-.479l-5.166-5.165c-.352-.353-.507-.732-.507-1.168 0-.436.155-.815.507-1.168l5.164-5.163.001-.001c.345-.342.725-.491 1.18-.478.463.013.855.18 1.205.526.319.35.476.742.49 1.199.013.428-.132.799-.48 1.146l-3.443 3.444Zm15.952.99.495-.495-.495-.495-3.443-3.443c-.346-.348-.49-.719-.477-1.147.013-.458.17-.849.487-1.2a1.718 1.718 0 0 1 1.208-.527c.454-.014.833.136 1.176.479l5.166 5.165c.352.353.507.732.507 1.168 0 .436-.155.815-.508 1.168l-5.165 5.165c-.34.34-.72.49-1.176.477a1.717 1.717 0 0 1-1.208-.526 1.794 1.794 0 0 1-.49-1.199c-.013-.428.132-.799.48-1.146l3.443-3.444ZM21.85 7.825h.491l.167-.462c.468-1.295 1.244-2.327 2.335-3.114A6.087 6.087 0 0 1 28.5 3.075c1.357 0 2.57.39 3.66 1.174 1.092.787 1.867 1.818 2.331 3.112l.166.464h10.468c1.119 0 2.06.39 2.86 1.191.802.801 1.191 1.741 1.19 2.858v33.251c0 1.12-.39 2.06-1.19 2.861-.798.8-1.739 1.19-2.86 1.189h-33.25c-1.12 0-2.06-.39-2.859-1.19-.799-.798-1.19-1.74-1.191-2.86v-33.25c0-1.119.39-2.059 1.191-2.858.801-.8 1.742-1.19 2.86-1.192h9.974Zm-10.675 37.3v.7H45.825V11.175H11.175v33.95Zm17.327-34.331c.683 0 1.292-.232 1.77-.711.48-.48.711-1.089.71-1.773-.003-.681-.234-1.288-.71-1.767-.479-.48-1.088-.712-1.772-.712-.684 0-1.293.232-1.771.712-.477.48-.708 1.086-.71 1.767-.002.685.23 1.295.71 1.775s1.09.712 1.773.709Z" fill="#C14646" stroke="#fff" stroke-width="1.4"/></svg>