<svg width="18" height="18" viewBox="0 0 18 18" fill="none" xmlns="http://www.w3.org/2000/svg">
<path opacity="0.2" fill-rule="evenodd" clip-rule="evenodd" d="M9.33342 0C8.80298 0 8.29427 0.210713 7.9192 0.585786C7.54413 0.960859 7.33342 1.46957 7.33342 2V6.66667H2.66675C2.13632 6.66667 1.62761 6.87738 1.25253 7.25245C0.877461 7.62753 0.666748 8.13623 0.666748 8.66667C0.666748 9.1971 0.877461 9.70581 1.25253 10.0809C1.62761 10.456 2.13632 10.6667 2.66675 10.6667H7.33342V15.3333C7.33342 15.8638 7.54413 16.3725 7.9192 16.7475C8.29427 17.1226 8.80298 17.3333 9.33342 17.3333C9.86385 17.3333 10.3726 17.1226 10.7476 16.7475C11.1227 16.3725 11.3334 15.8638 11.3334 15.3333V10.6667H16.0001C16.5305 10.6667 17.0392 10.456 17.4143 10.0809C17.7894 9.70581 18.0001 9.1971 18.0001 8.66667C18.0001 8.13623 17.7894 7.62753 17.4143 7.25245C17.0392 6.87738 16.5305 6.66667 16.0001 6.66667H11.3334V2C11.3334 1.46957 11.1227 0.960859 10.7476 0.585786C10.3726 0.210713 9.86385 0 9.33342 0Z" fill="#C14646"/>
<path d="M0.666667 7.99984C0.489856 7.99984 0.320287 7.9296 0.195262 7.80458C0.070238 7.67955 0 7.50998 0 7.33317C0 7.15636 0.070238 6.98679 0.195262 6.86177C0.320287 6.73674 0.489856 6.6665 0.666667 6.6665H14C14.1768 6.6665 14.3464 6.73674 14.4714 6.86177C14.5964 6.98679 14.6667 7.15636 14.6667 7.33317C14.6667 7.50998 14.5964 7.67955 14.4714 7.80458C14.3464 7.9296 14.1768 7.99984 14 7.99984H0.666667Z" fill="#C14646"/>
<path d="M6.66675 0.666667C6.66675 0.489856 6.73699 0.320287 6.86201 0.195262C6.98703 0.070238 7.1566 0 7.33341 0C7.51023 0 7.6798 0.070238 7.80482 0.195262C7.92984 0.320287 8.00008 0.489856 8.00008 0.666667V14C8.00008 14.1768 7.92984 14.3464 7.80482 14.4714C7.6798 14.5964 7.51023 14.6667 7.33341 14.6667C7.1566 14.6667 6.98703 14.5964 6.86201 14.4714C6.73699 14.3464 6.66675 14.1768 6.66675 14V0.666667Z" fill="#C14646"/>
</svg>
