<svg width="57" height="57" fill="none" xmlns="http://www.w3.org/2000/svg"><g clip-path="url(#a)"><path d="m28.312 40.873.085.34H50.998c.385 0 .757.146 1.044.413a1.629 1.629 0 0 1 .19 2.152 1.544 1.544 0 0 1-.937.596l-.318.03-22.228.003h-.35l-.086.34a7.746 7.746 0 0 1-2.689 4.185 7.436 7.436 0 0 1-4.622 1.618 7.436 7.436 0 0 1-4.622-1.618 7.746 7.746 0 0 1-2.688-4.184l-.086-.34h-.35l-6.251-.005h-.001c-.385 0-.757-.145-1.044-.413a1.628 1.628 0 0 1-.19-2.152c.232-.311.566-.522.937-.596l.318-.029h6.58l.087-.34a7.745 7.745 0 0 1 2.69-4.18 7.436 7.436 0 0 1 4.62-1.614c1.672 0 3.297.567 4.62 1.615a7.745 7.745 0 0 1 2.69 4.18ZM36.999 6.45c1.671 0 3.296.567 4.62 1.615a7.745 7.745 0 0 1 2.69 4.18l.086.34H50.997c.385-.001.757.145 1.044.413a1.628 1.628 0 0 1 .19 2.152 1.544 1.544 0 0 1-.937.596l-.318.028-6.23.005h-.351l-.086.34a7.746 7.746 0 0 1-2.688 4.184 7.436 7.436 0 0 1-4.622 1.618 7.436 7.436 0 0 1-4.622-1.618 7.746 7.746 0 0 1-2.689-4.184l-.085-.34h-.351l-22.249-.005c-.385.001-.757-.145-1.044-.412a1.628 1.628 0 0 1-.19-2.152c.232-.312.566-.523.937-.596l.318-.03H29.602l.086-.34a7.745 7.745 0 0 1 2.69-4.179 7.436 7.436 0 0 1 4.62-1.615ZM21 38.268c-1.183 0-2.316.481-3.15 1.334a4.587 4.587 0 0 0-1.3 3.206c0 1.201.467 2.355 1.3 3.207a4.405 4.405 0 0 0 3.15 1.333c1.184 0 2.316-.48 3.15-1.333a4.587 4.587 0 0 0 1.3-3.207c0-1.2-.467-2.354-1.3-3.206a4.405 4.405 0 0 0-3.15-1.334ZM37 9.64c-1.184 0-2.316.48-3.15 1.333a4.587 4.587 0 0 0-1.3 3.207c0 1.2.467 2.354 1.3 3.206a4.405 4.405 0 0 0 3.15 1.333c1.183 0 2.316-.48 3.15-1.333a4.587 4.587 0 0 0 1.3-3.206c0-1.201-.467-2.355-1.3-3.207a4.405 4.405 0 0 0-3.15-1.333Z" fill="#C14646" stroke="#fff" stroke-width=".9"/></g><defs><clipPath id="a"><path fill="#fff" d="M0 0h57v57H0z"/></clipPath></defs></svg>