<svg width="57" height="57" fill="none" xmlns="http://www.w3.org/2000/svg"><path d="M9.5 30.875h14.25c.673 0 1.237.228 1.693.684.456.456.684 1.02.682 1.691V47.5c0 .673-.228 1.237-.684 1.693-.456.456-1.02.684-1.691.682l-14.25-19Zm0 0v.7h.002l-.002-.7ZM25.425 9.498V23.75c0 .496-.16.88-.479 1.198-.318.319-.7.478-1.194.477H9.5c-.496 0-.879-.16-1.195-.478-.318-.319-.479-.703-.48-1.198V9.5c0-.496.16-.879.478-1.195.319-.318.703-.479 1.198-.48H23.75c.496 0 .88.16 1.198.479.319.318.478.7.477 1.194Zm23.75 0V23.75c0 .496-.16.88-.479 1.198-.318.319-.7.478-1.194.477H33.25c-.496 0-.879-.16-1.195-.478-.318-.319-.479-.703-.48-1.198V9.5c0-.496.16-.879.478-1.195.319-.318.703-.479 1.198-.48H47.5c.496 0 .88.16 1.198.479.319.318.478.7.477 1.194ZM7.825 47.5l-.7.001h.7ZM38.7 42.75v-.7h-5.51c-.495 0-.862-.16-1.156-.467-.302-.317-.459-.704-.459-1.208 0-.494.16-.877.479-1.196.319-.319.702-.479 1.196-.479h5.45v-5.51c0-.495.16-.862.467-1.156.317-.302.704-.459 1.208-.459.494 0 .879.16 1.2.48.319.318.477.7.475 1.192V38.7h5.51c.495 0 .862.16 1.156.467.302.317.459.704.459 1.208 0 .494-.16.879-.48 1.2-.318.319-.7.477-1.192.475H42.05v5.51c0 .495-.16.862-.467 1.156-.317.302-.704.459-1.208.459-.496 0-.879-.16-1.195-.478-.318-.319-.479-.703-.48-1.198V42.75Zm-3.075-31.575h-.7V22.075H45.825V11.175h-10.2Zm-23.75 0h-.7V22.075H22.075V11.175h-10.2Zm0 23.75h-.7V45.825H22.075V34.925h-10.2Z" fill="#C14646" stroke="#fff" stroke-width="1.4"/></svg>