<svg width="57" height="57" fill="none" xmlns="http://www.w3.org/2000/svg"><path d="M9.594 19.094h37.812v6.742c.192.036.383.076.572.12l-.115.487c.646.152 1.148.465 1.512.87l-39.781-8.22Zm0 0v23.36a4.953 4.953 0 0 0 4.953 4.952h11.779a7.032 7.032 0 0 0-.615 1.969H14.547a6.922 6.922 0 0 1-6.922-6.922V14.547a6.922 6.922 0 0 1 6.922-6.922h27.906a6.922 6.922 0 0 1 6.922 6.922v12.079L9.594 19.094Zm26.904 22.364.22-.222-.102-.295a9 9 0 0 1 10.587-11.7c.014.003.018.007.018.008a.034.034 0 0 1 .008.015c.004.018.002.045-.024.071l-.002.001-4.183 4.184a4.656 4.656 0 1 0 6.585 6.585l4.184-4.183v-.001a.086.086 0 0 1 .04-.024.065.065 0 0 1 .032 0 .032.032 0 0 1 .015.007s.005.003.008.019a9 9 0 0 1-11.7 10.587l-.295-.103-.222.222-6.425 6.425a3.657 3.657 0 0 1-5.171-5.17l6.427-6.426Z" fill="#C14646" stroke="#fff"/></svg>