<svg width="57" height="57" fill="none" xmlns="http://www.w3.org/2000/svg"><path d="M7.125 11.175h-.7V18.3h-3.35v-6.425a4.064 4.064 0 0 1 4.05-4.05h42.75a4.064 4.064 0 0 1 4.05 4.05v33.25a4.064 4.064 0 0 1-4.05 4.05H33.95v-3.35h16.625V11.175H7.125Zm26.977 20.314.336.183.335-.183 7.277-3.97v3.154l-7.612 4.155-7.613-4.155v-3.155l7.277 3.971ZM8.762 49.175H3.076v-5.688a6.415 6.415 0 0 1 5.688 5.688ZM3.076 37.319v-3.354c8.247.356 14.854 6.963 15.21 15.21H14.93C14.58 42.79 9.46 37.67 3.075 37.319Zm0-9.508V24.46c13.475.365 24.35 11.22 24.716 24.716h-3.352A22.075 22.075 0 0 0 3.075 27.811Zm42.963-6.436-11.6 6.328-11.601-6.328 11.6-6.328 11.601 6.328Z" fill="#C14646" stroke="#fff" stroke-width="1.4"/></svg>