<svg width="57" height="57" fill="none" xmlns="http://www.w3.org/2000/svg"><mask id="a" fill="#fff"><path d="M9.797 17.813a7.125 7.125 0 1 0-7.125-7.125 7.133 7.133 0 0 0 7.125 7.124Zm0-10.688a3.563 3.563 0 1 1 0 7.125 3.563 3.563 0 0 1 0-7.125ZM28.5 3.562a7.125 7.125 0 1 0 7.125 7.126A7.133 7.133 0 0 0 28.5 3.561Zm0 10.688a3.562 3.562 0 1 1 0-7.124 3.562 3.562 0 0 1 0 7.124Zm18.703 3.563a7.125 7.125 0 1 0-7.125-7.125 7.133 7.133 0 0 0 7.125 7.124Zm0-10.688a3.563 3.563 0 1 1 0 7.126 3.563 3.563 0 0 1 0-7.126ZM9.797 21.375a7.125 7.125 0 1 0 7.125 7.125 7.133 7.133 0 0 0-7.125-7.125Zm0 10.688a3.562 3.562 0 1 1 0-7.125 3.562 3.562 0 0 1 0 7.125ZM28.5 21.374a7.125 7.125 0 1 0 7.125 7.125 7.133 7.133 0 0 0-7.125-7.125Zm0 10.688a3.562 3.562 0 1 1 0-7.124 3.562 3.562 0 0 1 0 7.123Zm18.703-10.688a7.125 7.125 0 1 0 7.125 7.125 7.133 7.133 0 0 0-7.125-7.125Zm0 10.688a3.562 3.562 0 1 1 0-7.125 3.562 3.562 0 0 1 0 7.125Zm0 7.124a7.125 7.125 0 1 0 7.125 7.126 7.133 7.133 0 0 0-7.125-7.126Zm0 10.688a3.562 3.562 0 1 1 0-7.124 3.562 3.562 0 0 1 0 7.124ZM6.234 45.422h3.563v3.562H6.234v-3.562Zm10.688 0h3.562v3.562h-3.562v-3.562Zm10.687 0h3.563v3.562h-3.563v-3.562Z"/></mask><path d="M9.797 17.813a7.125 7.125 0 1 0-7.125-7.125 7.133 7.133 0 0 0 7.125 7.124Zm0-10.688a3.563 3.563 0 1 1 0 7.125 3.563 3.563 0 0 1 0-7.125ZM28.5 3.562a7.125 7.125 0 1 0 7.125 7.126A7.133 7.133 0 0 0 28.5 3.561Zm0 10.688a3.562 3.562 0 1 1 0-7.124 3.562 3.562 0 0 1 0 7.124Zm18.703 3.563a7.125 7.125 0 1 0-7.125-7.125 7.133 7.133 0 0 0 7.125 7.124Zm0-10.688a3.563 3.563 0 1 1 0 7.126 3.563 3.563 0 0 1 0-7.126ZM9.797 21.375a7.125 7.125 0 1 0 7.125 7.125 7.133 7.133 0 0 0-7.125-7.125Zm0 10.688a3.562 3.562 0 1 1 0-7.125 3.562 3.562 0 0 1 0 7.125ZM28.5 21.374a7.125 7.125 0 1 0 7.125 7.125 7.133 7.133 0 0 0-7.125-7.125Zm0 10.688a3.562 3.562 0 1 1 0-7.124 3.562 3.562 0 0 1 0 7.123Zm18.703-10.688a7.125 7.125 0 1 0 7.125 7.125 7.133 7.133 0 0 0-7.125-7.125Zm0 10.688a3.562 3.562 0 1 1 0-7.125 3.562 3.562 0 0 1 0 7.125Zm0 7.124a7.125 7.125 0 1 0 7.125 7.126 7.133 7.133 0 0 0-7.125-7.126Zm0 10.688a3.562 3.562 0 1 1 0-7.124 3.562 3.562 0 0 1 0 7.124ZM6.234 45.422h3.563v3.562H6.234v-3.562Zm10.688 0h3.562v3.562h-3.562v-3.562Zm10.687 0h3.563v3.562h-3.563v-3.562Z" fill="#C14646" stroke="#fff" stroke-width="1.8" mask="url(#a)"/></svg>