<svg width="40" height="40" fill="none" xmlns="http://www.w3.org/2000/svg"><g clip-path="url(#a)" fill="#C14646"><path d="M34.133 5.853A19.943 19.943 0 0 0 19.99-.003C8.943-.003-.012 8.952-.012 19.998c0 5.524 2.24 10.525 5.86 14.145A19.942 19.942 0 0 0 19.992 40c11.046 0 20.001-8.955 20.001-20.002 0-5.523-2.24-10.525-5.86-14.145Zm-2.57 25.712a16.313 16.313 0 0 1-11.571 4.793c-9.039 0-16.365-7.326-16.365-16.365A16.315 16.315 0 0 1 8.42 8.422a16.31 16.31 0 0 1 11.57-4.794c9.037 0 16.363 7.327 16.363 16.364a16.308 16.308 0 0 1-4.793 11.57l.003.003Z"/><path d="m22.562 20 6.425-6.425a1.819 1.819 0 0 0-2.57-2.568l.001-.002-6.425 6.425-6.425-6.425A1.818 1.818 0 0 0 11 13.575l-.002-.002 6.425 6.425-6.425 6.425a1.819 1.819 0 1 0 2.569 2.57l.001-.001 6.425-6.425 6.425 6.425a1.82 1.82 0 1 0 2.57-2.569l-.001-.001L22.562 20Z"/></g><defs><clipPath id="a"><path fill="#fff" d="M0 0h40v40H0z"/></clipPath></defs></svg>