<svg width="160" height="20" fill="none" xmlns="http://www.w3.org/2000/svg"><g clip-path="url(#a)"><path d="M7.25 15.968c.05-.247.05-.543.05-.888 0-2.762-1.332-4.242-3.404-4.242C1.381 10.838 0 12.96 0 15.377c0 2.664 1.48 4.291 4.143 4.291 1.036 0 2.072-.197 2.762-.493l-.345-1.578a6.26 6.26 0 0 1-2.072.345c-1.233 0-2.269-.592-2.318-2.022h5.08v.049ZM2.17 14.39c.05-.839.543-1.973 1.628-1.973 1.134 0 1.48 1.085 1.43 1.973H2.17Zm10.407 1.282v-1.578H8.385v1.578h4.192Zm7.3-4.488a4.88 4.88 0 0 0-1.776-.345c-2.811 0-4.488 1.972-4.488 4.488 0 2.713 1.628 4.34 4.093 4.34.888 0 1.678-.197 2.072-.345l-.247-1.677c-.345.148-.789.296-1.38.296-1.283 0-2.27-.987-2.27-2.614 0-1.48.84-2.664 2.27-2.664.64 0 1.035.148 1.331.296l.395-1.775Zm4.981-.345c-2.318 0-4.044 1.627-4.044 4.488 0 2.762 1.627 4.39 3.946 4.39 1.874 0 3.995-1.234 3.995-4.489-.05-2.614-1.53-4.39-3.897-4.39Zm1.578 4.39c0 1.528-.591 2.761-1.627 2.761-1.085 0-1.677-1.233-1.677-2.762 0-1.282.444-2.762 1.677-2.762 1.134.05 1.627 1.43 1.627 2.762Zm10.555-2.96c-.345-.888-1.134-1.43-2.17-1.43-1.282 0-2.022.69-2.417 1.331h-.049l-.098-1.134h-1.924c.05.74.05 1.578.05 2.565v5.967h2.219V14.44c0-1.134.74-1.726 1.38-1.726.889 0 1.234.789 1.234 1.825v5.03h2.22V14.39c0-1.184.69-1.677 1.33-1.677.889 0 1.234.789 1.234 2.022v4.833h2.22V14.39c0-2.466-1.135-3.502-2.615-3.502-1.035-.05-1.923.345-2.614 1.38ZM63.033 8.274v1.035l-2.17 2.17H51V8.274h12.034Zm-16.72 11.245V.283h16.671V1.32l-2.86 2.86h-9.865v11.493h12.676v1.036l-2.861 2.86h-13.76v-.049ZM98.545 14.192h-6.363v-3.896h6.363c.838 0 1.529-.296 2.121-.888a2.978 2.978 0 0 0 .888-2.17c0-.839-.296-1.579-.888-2.17-.592-.592-1.283-.888-2.121-.888H91.54v15.339h-1.183l-2.861-2.86V.282h10.999c1.973 0 3.6.69 4.981 2.023 1.381 1.38 2.022 3.008 2.022 4.883 0 1.923-.69 3.55-2.022 4.882-1.331 1.43-3.008 2.121-4.932 2.121Zm25.006-5.918v1.035l-2.17 2.17h-9.864V8.274h12.034ZM106.88 19.519V.283h16.671V1.32l-2.861 2.86h-9.864v11.493h12.676v1.036l-2.861 2.86H106.88v-.049Zm29.051-9.223c.838 0 1.529-.296 2.121-.888a2.978 2.978 0 0 0 .888-2.17c0-.839-.296-1.579-.888-2.17-.592-.592-1.283-.888-2.121-.888h-7.004v15.339h-1.183l-2.861-2.86V.282h10.999c1.973 0 3.6.69 4.981 2.023 1.381 1.38 2.022 3.008 2.022 4.883 0 1.923-.69 3.55-2.022 4.882-.986.987-1.973 1.579-2.91 1.776l6.017 5.623h-4.882l-5.771-5.327h-3.798v-3.897h6.412v.05Zm16.227 9.223-2.861-2.86V4.13h-6.658V.283H160v3.848h-6.658V19.47h-1.184v.049Z" fill="#333"/><path fill-rule="evenodd" clip-rule="evenodd" d="m85.82.283-8.237 9.618 8.237 9.618V.283Zm-10.653 12.43c-.494.591-5.82 6.806-5.82 6.806h11.689c-.05 0-5.376-6.215-5.87-6.806Zm-10.703 6.806 8.286-9.618L64.513.283h-.05V19.52ZM80.986.283H69.297l5.82 6.807 5.87-6.807Z" fill="#FD6666"/></g><defs><clipPath id="a"><path fill="#fff" d="M0 0h160v20H0z"/></clipPath></defs></svg>