<svg width="20" height="17" viewBox="0 0 20 17" fill="none" xmlns="http://www.w3.org/2000/svg">
<path fill-rule="evenodd" clip-rule="evenodd" d="M17.4554 0.307886C17.6769 0.174596 17.9415 0.132321 18.1936 0.189935C18.4457 0.247549 18.6657 0.400571 18.8074 0.616886L19.7974 2.12689C19.9264 2.32415 19.9816 2.56066 19.9533 2.79467C19.9249 3.02869 19.8148 3.24516 19.6424 3.40589L19.6394 3.40989L19.6254 3.42289L19.5684 3.47589L19.3434 3.69089C18.0984 4.89855 16.8912 6.14448 15.7234 7.42689C13.5264 9.84289 10.9174 13.0049 9.16136 16.0729C8.67136 16.9289 7.47436 17.1129 6.76436 16.3739L0.279362 9.63589C0.186428 9.53929 0.113862 9.42499 0.0659787 9.29979C0.0180956 9.17459 -0.00412753 9.04104 0.000630111 8.90708C0.00538775 8.77312 0.0370291 8.64149 0.0936734 8.52C0.150318 8.39851 0.230809 8.28965 0.330362 8.19989L2.29036 6.43189C2.4626 6.2766 2.68346 6.186 2.91514 6.1756C3.14682 6.1652 3.3749 6.23565 3.56036 6.37489L6.86936 8.85589C12.0384 3.75889 14.9694 1.80289 17.4554 0.307886Z" fill="white"/>
</svg>
